<?xml version="1.0" standalone="no"?>
<!DOCTYPE svg PUBLIC "-//W3C//DTD SVG 20010904//EN"
 "http://www.w3.org/TR/2001/REC-SVG-20010904/DTD/svg10.dtd">
<svg version="1.0" xmlns="http://www.w3.org/2000/svg"
 width="260.000000pt" height="260.000000pt" viewBox="0 0 260.000000 260.000000"
 preserveAspectRatio="xMidYMid meet">
<metadata>
Created by potrace 1.11, written by Peter Selinger 2001-2013
</metadata>
<g transform="translate(0.000000,260.000000) scale(0.100000,-0.100000)"
fill="#000000" stroke="none">
<path d="M1141 1555 c-119 -136 -146 -163 -158 -153 -8 7 -64 71 -125 144
-106 128 -133 153 -149 137 -62 -68 -589 -686 -588 -691 1 -15 61 -54 69 -46
4 5 126 146 270 314 145 168 266 303 269 301 3 -2 122 -141 264 -310 143 -168
262 -310 267 -315 8 -8 70 31 70 44 0 4 -68 87 -150 185 -83 98 -149 182 -148
187 4 12 232 276 239 277 5 1 432 -499 550 -643 15 -19 16 -19 47 4 18 13 32
27 32 31 0 4 -58 76 -130 160 -71 85 -130 156 -130 159 0 6 229 270 234 270 2
0 122 -141 266 -312 145 -172 271 -321 280 -332 17 -18 19 -18 49 5 17 13 30
28 27 35 -6 17 -588 704 -596 704 -3 0 -70 -74 -149 -165 -78 -91 -144 -165
-146 -165 -1 0 -67 77 -146 170 -79 94 -151 170 -159 170 -9 0 -80 -74 -159
-165z"/>
<path d="M560 1230 l0 -70 70 0 70 0 0 70 0 70 -70 0 -70 0 0 -70z"/>
<path d="M720 1230 l0 -70 70 0 70 0 0 70 0 70 -70 0 -70 0 0 -70z"/>
<path d="M560 1070 l0 -70 70 0 70 0 0 70 0 70 -70 0 -70 0 0 -70z"/>
<path d="M720 1070 l0 -70 70 0 70 0 0 70 0 70 -70 0 -70 0 0 -70z"/>
</g>
</svg>
